<svg width="188" height="70" viewBox="0 0 188 70" fill="none" xmlns="http://www.w3.org/2000/svg">
<path d="M91.124 45.85C89.2023 45.85 87.4903 45.57 86.0228 44.975C84.5553 44.415 83.1577 43.47 81.795 42.21C81.6203 42.07 81.4456 41.86 81.3408 41.615C81.236 41.37 81.1661 41.125 81.1661 40.88C81.1661 40.46 81.3058 40.075 81.6203 39.76C81.9348 39.445 82.2842 39.27 82.7384 39.27C83.0878 39.27 83.4372 39.41 83.7167 39.69C84.73 40.67 85.8481 41.44 87.036 41.965C88.224 42.49 89.5517 42.735 91.0542 42.735C92.2072 42.735 93.2204 42.56 94.1638 42.175C95.0723 41.825 95.806 41.3 96.3651 40.635C96.9241 39.97 97.2036 39.235 97.2036 38.36C97.2036 37.31 96.9241 36.435 96.3301 35.77C95.7361 35.105 94.9325 34.51 93.8843 34.09C92.8361 33.635 91.6481 33.25 90.2855 32.9C89.0975 32.62 87.9794 32.27 86.9661 31.85C85.9529 31.43 85.0794 30.94 84.3456 30.31C83.6119 29.68 83.0179 28.945 82.6336 28.07C82.2143 27.195 82.0396 26.145 82.0396 24.955C82.0396 23.45 82.4239 22.155 83.2275 21.035C83.9962 19.915 85.1143 19.04 86.5119 18.41C87.9095 17.78 89.5168 17.465 91.3337 17.465C92.9409 17.465 94.4433 17.71 95.8759 18.235C97.3084 18.76 98.4615 19.495 99.3 20.405C99.8241 20.895 100.069 21.385 100.069 21.91C100.069 22.26 99.894 22.61 99.5796 22.96C99.2651 23.275 98.8808 23.45 98.4615 23.45C98.1819 23.45 97.9024 23.345 97.6928 23.17C97.2386 22.68 96.6795 22.225 95.9807 21.84C95.2819 21.455 94.5482 21.14 93.7445 20.895C92.9409 20.65 92.1373 20.545 91.3337 20.545C90.1457 20.545 89.0626 20.72 88.1541 21.07C87.2457 21.42 86.5119 21.91 86.0228 22.54C85.4987 23.17 85.2541 23.94 85.2541 24.815C85.2541 25.795 85.5336 26.635 86.1276 27.265C86.6866 27.895 87.4903 28.42 88.4336 28.84C89.412 29.26 90.4602 29.61 91.6481 29.925C92.9409 30.24 94.1289 30.59 95.212 31.01C96.2952 31.43 97.2386 31.92 98.0073 32.515C98.7759 33.11 99.4049 33.88 99.8241 34.825C100.243 35.77 100.488 36.89 100.488 38.255C100.488 39.69 100.069 40.985 99.2651 42.105C98.4615 43.225 97.3434 44.135 95.9458 44.765C94.4783 45.535 92.871 45.85 91.124 45.85Z" fill="black"/>
<path d="M114.918 24.85C116.63 24.85 117.993 25.235 119.006 25.97C120.02 26.705 120.718 27.72 121.173 28.945C121.592 30.205 121.836 31.57 121.836 33.075V43.855C121.836 44.31 121.697 44.695 121.382 45.01C121.068 45.325 120.718 45.465 120.264 45.465C119.81 45.465 119.426 45.325 119.111 45.01C118.832 44.695 118.692 44.31 118.692 43.855V33.075C118.692 32.095 118.552 31.22 118.273 30.415C117.993 29.61 117.504 28.945 116.84 28.455C116.176 27.965 115.268 27.72 114.115 27.72C113.032 27.72 112.053 27.965 111.18 28.455C110.306 28.945 109.572 29.575 109.048 30.415C108.524 31.22 108.28 32.13 108.28 33.075V43.855C108.28 44.31 108.14 44.695 107.825 45.01C107.511 45.325 107.162 45.465 106.707 45.465C106.253 45.465 105.904 45.325 105.589 45.01C105.275 44.695 105.135 44.31 105.135 43.855V17.99C105.135 17.535 105.275 17.15 105.589 16.835C105.904 16.52 106.253 16.38 106.707 16.38C107.162 16.38 107.546 16.52 107.86 16.835C108.14 17.15 108.28 17.535 108.28 17.99V29.715L107.511 30.59C107.651 29.925 107.93 29.225 108.385 28.525C108.839 27.825 109.398 27.195 110.062 26.67C110.726 26.11 111.494 25.69 112.333 25.34C113.101 24.99 113.975 24.85 114.918 24.85Z" fill="black"/>
<path d="M129.034 22.19C128.37 22.19 127.881 22.05 127.567 21.805C127.252 21.56 127.112 21.14 127.112 20.58V20.02C127.112 19.46 127.287 19.075 127.637 18.795C127.986 18.55 128.475 18.41 129.104 18.41C129.733 18.41 130.187 18.55 130.502 18.795C130.816 19.04 130.956 19.46 130.956 20.02V20.58C130.956 21.14 130.781 21.525 130.467 21.805C130.117 22.085 129.663 22.19 129.034 22.19ZM130.641 43.855C130.641 44.31 130.502 44.695 130.187 45.01C129.873 45.325 129.523 45.465 129.069 45.465C128.615 45.465 128.196 45.325 127.916 45.01C127.602 44.695 127.462 44.31 127.462 43.855V26.46C127.462 26.005 127.602 25.62 127.916 25.305C128.231 24.99 128.615 24.85 129.069 24.85C129.523 24.85 129.873 24.99 130.187 25.305C130.502 25.62 130.641 26.005 130.641 26.46V43.855Z" fill="black"/>
<path d="M146.364 24.64C148.146 24.64 149.544 24.99 150.557 25.725C151.571 26.46 152.304 27.44 152.724 28.665C153.143 29.89 153.387 31.29 153.387 32.83V43.82C153.387 44.275 153.248 44.66 152.933 44.975C152.619 45.29 152.269 45.43 151.815 45.43C151.361 45.43 150.977 45.29 150.662 44.975C150.383 44.66 150.243 44.275 150.243 43.82V32.935C150.243 31.955 150.103 31.045 149.789 30.24C149.474 29.435 148.985 28.77 148.286 28.28C147.587 27.79 146.644 27.545 145.456 27.545C144.373 27.545 143.36 27.79 142.451 28.28C141.543 28.77 140.809 29.4 140.25 30.24C139.691 31.045 139.411 31.955 139.411 32.935V43.855C139.411 44.31 139.272 44.695 138.957 45.01C138.643 45.325 138.293 45.465 137.839 45.465C137.385 45.465 137.035 45.325 136.721 45.01C136.406 44.695 136.267 44.31 136.267 43.855V26.775C136.267 26.32 136.406 25.9 136.721 25.62C137.035 25.305 137.385 25.165 137.839 25.165C138.293 25.165 138.678 25.305 138.992 25.62C139.272 25.935 139.411 26.32 139.411 26.775V29.54L138.643 30.415C138.782 29.75 139.062 29.05 139.551 28.35C140.005 27.65 140.599 27.02 141.333 26.495C142.032 25.935 142.835 25.515 143.674 25.165C144.513 24.815 145.421 24.64 146.364 24.64Z" fill="black"/>
<path d="M174.177 24.85C174.631 24.85 174.98 24.99 175.295 25.305C175.609 25.62 175.749 26.005 175.749 26.46V43.54C175.749 45.78 175.33 47.6 174.456 49.035C173.583 50.47 172.43 51.555 170.997 52.255C169.53 52.955 167.888 53.305 166.071 53.305C165.057 53.305 164.079 53.2 163.136 52.99C162.192 52.78 161.424 52.5 160.83 52.15C160.341 51.905 159.991 51.625 159.782 51.275C159.572 50.925 159.537 50.54 159.712 50.155C159.886 49.7 160.166 49.35 160.515 49.175C160.865 49 161.249 49 161.633 49.175C162.053 49.35 162.647 49.63 163.45 49.945C164.254 50.26 165.127 50.435 166.141 50.435C167.503 50.435 168.656 50.19 169.635 49.665C170.613 49.14 171.347 48.37 171.871 47.355C172.395 46.34 172.64 45.08 172.64 43.61V40.845L173.059 41.79C172.674 42.63 172.115 43.365 171.417 43.96C170.718 44.555 169.879 45.045 168.971 45.36C168.027 45.675 167.049 45.85 165.966 45.85C164.464 45.85 163.171 45.535 162.157 44.87C161.109 44.24 160.341 43.33 159.816 42.21C159.292 41.055 159.048 39.76 159.048 38.29V26.46C159.048 26.005 159.188 25.62 159.502 25.305C159.816 24.99 160.166 24.85 160.62 24.85C161.074 24.85 161.459 24.99 161.773 25.305C162.053 25.62 162.192 26.005 162.192 26.46V37.59C162.192 39.375 162.577 40.705 163.38 41.615C164.149 42.525 165.372 42.98 167.014 42.98C168.062 42.98 169.006 42.735 169.844 42.28C170.683 41.825 171.347 41.16 171.871 40.32C172.395 39.48 172.64 38.57 172.64 37.59V26.46C172.64 26.005 172.779 25.62 173.094 25.305C173.338 24.99 173.723 24.85 174.177 24.85Z" fill="black"/>
<path d="M67.2598 32.83C50.4886 27.545 43.9897 15.575 41.474 7.42C40.9499 5.775 38.6089 5.775 38.0848 7.42C33.0883 23.52 21.1038 30.17 12.8929 32.865C11.2507 33.39 11.2857 35.735 12.9278 36.225C28.2666 40.845 35.0799 53.9 37.945 62.405C38.5041 64.085 40.8451 63.98 41.3342 62.3C45.9463 45.255 58.6995 38.71 67.19 36.225C68.8671 35.735 68.902 33.355 67.2598 32.83ZM49.4403 35.35C46.5054 36.225 42.1029 38.465 40.4957 44.38C40.321 44.975 39.5173 45.01 39.3426 44.415C38.3643 41.475 36.0233 36.96 30.7124 35.35C30.1534 35.175 30.1184 34.37 30.7124 34.195C33.5426 33.25 37.7004 30.975 39.4125 25.41C39.5872 24.85 40.3908 24.85 40.5655 25.41C41.439 28.21 43.6752 32.375 49.4753 34.195C50.0343 34.37 50.0343 35.175 49.4403 35.35Z" fill="url(#paint0_linear_257_13)"/>
<defs>
<linearGradient id="paint0_linear_257_13" x1="16.957" y1="23.9336" x2="68.16" y2="48.5153" gradientUnits="userSpaceOnUse">
<stop stop-color="#5931BA"/>
<stop offset="1" stop-color="#597EBA"/>
</linearGradient>
</defs>
</svg>
